HIERARCHY
ROOT Hips
{
  OFFSET 0 89.5177 0.535
  CHANNELS 6 Xposition Yposition Zposition Zrotation Xrotation Yrotation
  JOINT Spine
  {
    OFFSET 12.0259 -0.162855 1.69034e-005
    CHANNELS 3 Zrotation Xrotation Yrotation
    JOINT Spine1
    {
      OFFSET 15.3169 -0.0121922 0
      CHANNELS 3 Zrotation Xrotation Yrotation
      JOINT Spine2
      {
        OFFSET 15.3176 -0.0121908 0
        CHANNELS 3 Zrotation Xrotation Yrotation
        JOINT Neck
        {
          OFFSET 19.9142 1.56338 0
          CHANNELS 3 Zrotation Xrotation Yrotation
          JOINT Head
          {
            OFFSET 6.92651 0 0
            CHANNELS 3 Zrotation Xrotation Yrotation
            End Site
            {
              OFFSET 20.7666 0 0
            }
          }
          JOINT LeftShoulder
          {
            OFFSET -6.20654 0.708824 7.28219
            CHANNELS 3 Zrotation Xrotation Yrotation
            JOINT LeftArm
            {
              OFFSET 14.108 0 -1.52588e-005
              CHANNELS 3 Zrotation Xrotation Yrotation
              JOINT LeftForeArm
              {
                OFFSET 28.5802 0 0
                CHANNELS 3 Zrotation Xrotation Yrotation
                JOINT LeftHand
                {
                  OFFSET 27.092 0 0
                  CHANNELS 3 Zrotation Xrotation Yrotation
                  End Site
                  {
                    OFFSET 9.55928 -0.186424 0.145352
                  }
                }
              }
            }
          }
          JOINT RightShoulder
          {
            OFFSET -6.20654 0.708866 -7.28218
            CHANNELS 3 Zrotation Xrotation Yrotation
            JOINT RightArm
            {
              OFFSET 14.108 0 1.52588e-005
              CHANNELS 3 Zrotation Xrotation Yrotation
              JOINT RightForeArm
              {
                OFFSET 28.5802 0 0
                CHANNELS 3 Zrotation Xrotation Yrotation
                JOINT RightHand
                {
                  OFFSET 27.092 0 0
                  CHANNELS 3 Zrotation Xrotation Yrotation
                  End Site
                  {
                    OFFSET 9.55929 -0.186417 -0.145354
                  }
                }
              }
            }
          }
        }
      }
    }
  }
  JOINT LeftUpLeg
  {
    OFFSET 0.005 -0.535 8.837
    CHANNELS 3 Zrotation Xrotation Yrotation
    JOINT LeftLeg
    {
      OFFSET 39.9035 0 0
      CHANNELS 3 Zrotation Xrotation Yrotation
      JOINT LeftFoot
      {
        OFFSET 39.6689 0 0
        CHANNELS 3 Zrotation Xrotation Yrotation
        JOINT LeftToe
        {
          OFFSET 10.1624 13.6296 0
          CHANNELS 3 Zrotation Xrotation Yrotation
          End Site
          {
            OFFSET 8.38147 0 0
          }
        }
      }
    }
  }
  JOINT RightUpLeg
  {
    OFFSET 0.005 -0.535 -8.837
    CHANNELS 3 Zrotation Xrotation Yrotation
    JOINT RightLeg
    {
      OFFSET 39.9035 0 0
      CHANNELS 3 Zrotation Xrotation Yrotation
      JOINT RightFoot
      {
        OFFSET 39.6689 0 0
        CHANNELS 3 Zrotation Xrotation Yrotation
        JOINT RightToe
        {
          OFFSET 10.1624 13.6296 0
          CHANNELS 3 Zrotation Xrotation Yrotation
          End Site
          {
            OFFSET 8.38147 0 0
          }
        }
      }
    }
  }
}
MOTION
Frames:	8
Frame Time:	0.0333333
326.865 87.6799 -4.91943 103.559 3.08052 -0.37037 0.225566 1.98047 -0.835994 0.480466 3.95788 -1.68113 0.480466 3.95788 -1.68114 -8.31026e-012 -9.0191e-006 -5.27751e-005 -16.1157 1.98376 -6.71526 179.472 1.50637 -70.6792 -6.04605 6.16514 61.9785 -36.4533 8.94531e-016 1.59028e-015 -61.0422 -42.6412 -58.9093 -179.389 1.59065 68.9916 -23.0892 -0.49044 -66.636 -24.3804 3.18055e-015 1.59028e-015 -30.2551 36.1656 20.1682 -38.9678 13.9346 -169.893 -23.5787 -6.36111e-015 -7.95139e-016 4.78493 9.73579 -19.9849 90 -4.77083e-015 1.59028e-015 -11.6657 -11.5444 178.051 -17.0877 -3.18056e-015 -2.98177e-016 19.5835 -3.0984 5.66671 90 -7.95139e-016 -0 
328.354 88.0893 -5.06363 103.02 3.15535 0.644043 0.314695 1.76198 -1.05124 0.662161 3.51832 -2.11348 0.662161 3.51832 -2.11349 -8.3049e-012 -9.0191e-006 -5.27751e-005 -15.6455 1.99633 -4.35063 179.216 2.53792 -72.8303 -5.27526 7.73573 63.2838 -36.9961 -3.97569e-016 -0 -63.5088 -42.7957 -63.0039 -179.387 1.58631 68.8729 -12.1962 3.28839 -66.8404 -18.355 -3.18055e-015 -1.59028e-015 -31.1945 32.7842 20.7826 -36.2021 12.5166 -171.077 -23.8891 0 -1.59028e-015 7.45759 9.04516 -18.5512 90 -3.18055e-015 -0 -12.4949 -11.2233 177.124 -17.229 -1.59028e-015 1.98785e-016 18.6342 -3.01247 5.28631 90 3.97569e-016 -0 
329.568 88.1848 -5.09734 102.318 3.03795 0.558149 0.373934 1.5446 -1.05015 0.776556 3.08252 -2.11134 0.776557 3.08252 -2.11135 -8.30987e-012 -9.0191e-006 -5.27751e-005 -14.6548 2.14493 -2.9129 179.087 3.2211 -74.1652 -6.39529 9.95059 63.215 -37.7738 1.59028e-015 -7.95139e-016 -63.5326 -42.9079 -63.2509 -179.354 1.67753 68.9276 -2.12775 6.28154 -66.8385 -14.8405 1.59028e-015 -7.95139e-016 -33.4594 31.9338 24.1169 -34.2888 11.6213 -170.88 -27.5691 0 -0 10.2374 7.4159 -15.1256 90 -1.59028e-015 -0 -12.8619 -11.1074 177.311 -17.7304 -1.59028e-015 1.98785e-016 18.458 -3.00532 4.40726 90 -1.19271e-015 2.38542e-015 
330.656 88.1014 -5.00402 102.232 3.11652 -0.0646904 0.2667 1.22783 -0.922438 0.553331 2.45165 -1.85105 0.553331 2.45165 -1.85106 -8.3046e-012 -9.0191e-006 -5.27751e-005 -13.5531 2.55811 -2.12098 179.106 3.17796 -74.2874 -8.68195 12.151 62.0002 -38.0822 0 -7.95139e-016 -60.6702 -42.8533 -58.9377 -179.08 2.3725 68.7974 3.4117 7.73645 -65.3624 -12.8593 3.97569e-016 -0 -36.5549 32.4331 27.918 -32.9715 11.2398 -170.296 -31.8771 -3.18055e-015 1.59028e-015 11.4797 5.52882 -11.225 90 -1.59028e-015 1.59028e-015 -13.8172 -11.3322 177.842 -18.6205 4.77083e-015 3.97569e-016 18.7284 -3.06875 3.41156 90 0 -0 
331.639 87.9744 -4.73229 102.466 3.41843 -0.688256 0.0966594 0.83261 -0.787465 0.204787 1.66428 -1.57641 0.204787 1.66428 -1.57642 -8.30519e-012 -9.0191e-006 -5.27751e-005 -12.5256 3.01551 -1.4736 179.237 2.57892 -73.5157 -11 13.7737 60.2329 -37.6296 -4.77083e-015 -1.19271e-015 -55.7217 -41.9219 -51.2381 -178.696 3.30438 68.4478 5.78851 8.55013 -62.5318 -11.6962 0 3.18055e-015 -35.7375 33.9391 28.3243 -30.9301 10.6498 -170.159 -34.8973 0 -0 12.9932 4.25825 -8.65714 90 0 1.59028e-015 -14.832 -11.0201 178.22 -19.1108 0 -1.98785e-016 18.1952 -2.62804 2.61792 90 0 7.95139e-016 
332.577 87.8052 -4.40314 102.649 3.91851 -1.64841 -0.111752 0.427023 -0.586957 -0.219133 0.855636 -1.17296 -0.219133 0.855636 -1.17297 -8.31106e-012 -9.0191e-006 -5.27751e-005 -11.3838 3.22586 -0.733419 179.387 1.97995 -72.7894 -12.6036 14.595 59.1354 -36.1632 -3.18055e-015 -2.18663e-015 -51.5602 -40.1742 -44.5139 -178.412 3.93684 68.0098 6.39698 7.81801 -58.8543 -11.7985 3.97569e-016 -6.36111e-015 -33.1929 36.1558 26.8223 -28.0605 9.56778 -169.999 -36.4158 -3.18055e-015 -2.51276e-015 16.3434 4.1457 -8.47439 90 7.95139e-016 -1.59028e-015 -15.9719 -11.5745 178.653 -20.1056 3.18056e-015 5.96354e-016 18.0265 -2.55995 2.65212 90 -3.97569e-016 7.95139e-016 
333.325 87.6204 -3.99951 102.35 4.56529 -2.62312 -0.259529 0.0381129 -0.400735 -0.518783 0.078508 -0.801121 -0.518783 0.078508 -0.80113 -8.30892e-012 -9.0191e-006 -5.27751e-005 -9.9744 3.18297 0.0877054 179.372 2.04662 -72.9447 -12.8635 14.5746 59.3998 -33.7739 0 3.97569e-016 -48.2843 -38.7714 -39.4106 -178.272 4.23022 67.7568 6.59718 5.76426 -55.3794 -12.9648 -1.19271e-015 -0 -31.7288 38.4257 26.0419 -24.1849 8.36258 -169.98 -36.125 0 -8.94531e-016 19.1539 4.3355 -8.90677 90 7.95139e-016 1.59028e-015 -16.2846 -11.9365 179.082 -20.6829 7.95139e-016 -3.47873e-016 17.4551 -2.27036 2.76803 90 0 -7.95139e-016 
334.01 87.4889 -3.58462 102.083 5.58646 -3.55958 -0.40157 -0.399978 -0.242424 -0.804856 -0.797776 -0.487488 -0.804856 -0.797776 -0.487497 -8.30828e-012 -9.0191e-006 -5.27751e-005 -8.3737 3.09521 0.847634 179.212 2.69968 -73.7283 -12.2199 13.9082 60.5968 -31.0096 -3.18055e-015 1.78906e-015 -47.1376 -39.082 -38.8416 -178.162 4.51322 67.8188 6.88388 3.70364 -52.7692 -14.1245 -1.98785e-015 3.18055e-015 -33.0032 39.7684 27.4875 -20.6205 7.73313 -169.885 -33.6344 3.18055e-015 -1.78906e-015 21.3617 4.3232 -8.92428 90 3.97569e-016 -4.77083e-015 -15.9014 -11.8134 179.588 -19.9757 7.95139e-016 2.98177e-016 15.7612 -1.34441 2.53097 90 -9.93923e-017 2.38542e-015 
